<mxfile host="app.diagrams.net" agent="Mozilla/5.0 (Windows NT 10.0; Win64; x64) AppleWebKit/537.36 (KHTML, like Gecko) Chrome/137.0.0.0 Safari/537.36" version="27.1.1">
  <diagram name="Page-1" id="1hk51o4JfsE4ce02fBWJ">
    <mxGraphModel dx="1426" dy="777" grid="1" gridSize="10" guides="1" tooltips="1" connect="1" arrows="1" fold="1" page="1" pageScale="1" pageWidth="827" pageHeight="1169" math="0" shadow="0">
      <root>
        <mxCell id="0" />
        <mxCell id="1" parent="0" />
        <mxCell id="I4vJo0qSFJRFY2jhur6u-64" value="" style="rounded=0;whiteSpace=wrap;html=1;" parent="1" vertex="1">
          <mxGeometry x="490" y="110" width="650" height="710" as="geometry" />
        </mxCell>
        <mxCell id="I4vJo0qSFJRFY2jhur6u-65" value="Gestion Des Demandes" style="text;html=1;align=center;verticalAlign=middle;resizable=0;points=[];autosize=1;strokeColor=none;fillColor=none;fontStyle=1;fontSize=16;" parent="1" vertex="1">
          <mxGeometry x="720" y="120" width="190" height="30" as="geometry" />
        </mxCell>
        <mxCell id="I4vJo0qSFJRFY2jhur6u-66" value="Administrateur" style="shape=umlActor;verticalLabelPosition=bottom;verticalAlign=top;html=1;outlineConnect=0;" parent="1" vertex="1">
          <mxGeometry x="345" y="260" width="30" height="60" as="geometry" />
        </mxCell>
        <mxCell id="I4vJo0qSFJRFY2jhur6u-67" value="Candidat" style="shape=umlActor;verticalLabelPosition=bottom;verticalAlign=top;html=1;outlineConnect=0;" parent="1" vertex="1">
          <mxGeometry x="345" y="580" width="30" height="60" as="geometry" />
        </mxCell>
        <mxCell id="I4vJo0qSFJRFY2jhur6u-68" value="Ajouter une offre" style="ellipse;whiteSpace=wrap;html=1;" parent="1" vertex="1">
          <mxGeometry x="610" y="200" width="120" height="80" as="geometry" />
        </mxCell>
        <mxCell id="I4vJo0qSFJRFY2jhur6u-69" value="Consulter les offres existantes" style="ellipse;whiteSpace=wrap;html=1;" parent="1" vertex="1">
          <mxGeometry x="610" y="330" width="120" height="80" as="geometry" />
        </mxCell>
        <mxCell id="I4vJo0qSFJRFY2jhur6u-70" value="Consulter les offres" style="ellipse;whiteSpace=wrap;html=1;" parent="1" vertex="1">
          <mxGeometry x="600" y="503" width="120" height="80" as="geometry" />
        </mxCell>
        <mxCell id="I4vJo0qSFJRFY2jhur6u-71" value="Postuler à une offre" style="ellipse;whiteSpace=wrap;html=1;" parent="1" vertex="1">
          <mxGeometry x="600" y="608" width="120" height="80" as="geometry" />
        </mxCell>
        <mxCell id="I4vJo0qSFJRFY2jhur6u-72" value="S&#39;authentifier" style="ellipse;whiteSpace=wrap;html=1;" parent="1" vertex="1">
          <mxGeometry x="960" y="200" width="120" height="80" as="geometry" />
        </mxCell>
        <mxCell id="I4vJo0qSFJRFY2jhur6u-73" value="" style="endArrow=classic;dashed=1;html=1;rounded=0;exitX=1;exitY=0.5;exitDx=0;exitDy=0;endFill=1;entryX=0;entryY=0.5;entryDx=0;entryDy=0;" parent="1" source="I4vJo0qSFJRFY2jhur6u-68" target="I4vJo0qSFJRFY2jhur6u-72" edge="1">
          <mxGeometry width="50" height="50" relative="1" as="geometry">
            <mxPoint x="300" y="70" as="sourcePoint" />
            <mxPoint x="978" y="268" as="targetPoint" />
          </mxGeometry>
        </mxCell>
        <mxCell id="I4vJo0qSFJRFY2jhur6u-74" value="&amp;lt;&amp;lt;include&amp;gt;&amp;gt;" style="edgeLabel;html=1;align=center;verticalAlign=middle;resizable=0;points=[];" parent="I4vJo0qSFJRFY2jhur6u-73" vertex="1" connectable="0">
          <mxGeometry x="-0.0269" y="-1" relative="1" as="geometry">
            <mxPoint as="offset" />
          </mxGeometry>
        </mxCell>
        <mxCell id="I4vJo0qSFJRFY2jhur6u-75" value="" style="endArrow=classic;dashed=1;html=1;rounded=0;exitX=1;exitY=0.5;exitDx=0;exitDy=0;endFill=1;entryX=0;entryY=0.5;entryDx=0;entryDy=0;" parent="1" source="I4vJo0qSFJRFY2jhur6u-69" target="I4vJo0qSFJRFY2jhur6u-72" edge="1">
          <mxGeometry width="50" height="50" relative="1" as="geometry">
            <mxPoint x="790" y="274" as="sourcePoint" />
            <mxPoint x="1020" y="274" as="targetPoint" />
          </mxGeometry>
        </mxCell>
        <mxCell id="I4vJo0qSFJRFY2jhur6u-76" value="&amp;lt;&amp;lt;include&amp;gt;&amp;gt;" style="edgeLabel;html=1;align=center;verticalAlign=middle;resizable=0;points=[];" parent="I4vJo0qSFJRFY2jhur6u-75" vertex="1" connectable="0">
          <mxGeometry x="-0.0269" y="-1" relative="1" as="geometry">
            <mxPoint as="offset" />
          </mxGeometry>
        </mxCell>
        <mxCell id="I4vJo0qSFJRFY2jhur6u-77" value="Consulter les Candidats postulée" style="ellipse;whiteSpace=wrap;html=1;" parent="1" vertex="1">
          <mxGeometry x="960" y="330" width="120" height="80" as="geometry" />
        </mxCell>
        <mxCell id="I4vJo0qSFJRFY2jhur6u-78" value="" style="endArrow=classic;dashed=1;html=1;rounded=0;exitX=0;exitY=0.5;exitDx=0;exitDy=0;endFill=1;entryX=1;entryY=0.5;entryDx=0;entryDy=0;" parent="1" source="I4vJo0qSFJRFY2jhur6u-77" target="I4vJo0qSFJRFY2jhur6u-69" edge="1">
          <mxGeometry width="50" height="50" relative="1" as="geometry">
            <mxPoint x="946" y="395" as="sourcePoint" />
            <mxPoint x="714" y="350" as="targetPoint" />
          </mxGeometry>
        </mxCell>
        <mxCell id="I4vJo0qSFJRFY2jhur6u-79" value="&amp;lt;&amp;lt;extend&amp;gt;&amp;gt;" style="edgeLabel;html=1;align=center;verticalAlign=middle;resizable=0;points=[];" parent="I4vJo0qSFJRFY2jhur6u-78" vertex="1" connectable="0">
          <mxGeometry x="-0.0269" y="-1" relative="1" as="geometry">
            <mxPoint as="offset" />
          </mxGeometry>
        </mxCell>
        <mxCell id="I4vJo0qSFJRFY2jhur6u-80" value="" style="endArrow=none;html=1;rounded=0;exitX=0.5;exitY=0.5;exitDx=0;exitDy=0;exitPerimeter=0;entryX=0;entryY=0.5;entryDx=0;entryDy=0;" parent="1" source="I4vJo0qSFJRFY2jhur6u-66" target="I4vJo0qSFJRFY2jhur6u-68" edge="1">
          <mxGeometry width="50" height="50" relative="1" as="geometry">
            <mxPoint x="400" y="300" as="sourcePoint" />
            <mxPoint x="450" y="250" as="targetPoint" />
          </mxGeometry>
        </mxCell>
        <mxCell id="I4vJo0qSFJRFY2jhur6u-81" value="" style="endArrow=none;html=1;rounded=0;exitX=0.5;exitY=0.5;exitDx=0;exitDy=0;exitPerimeter=0;entryX=0;entryY=0.5;entryDx=0;entryDy=0;" parent="1" source="I4vJo0qSFJRFY2jhur6u-66" target="I4vJo0qSFJRFY2jhur6u-69" edge="1">
          <mxGeometry width="50" height="50" relative="1" as="geometry">
            <mxPoint x="620" y="430" as="sourcePoint" />
            <mxPoint x="870" y="380" as="targetPoint" />
          </mxGeometry>
        </mxCell>
        <mxCell id="I4vJo0qSFJRFY2jhur6u-82" value="" style="endArrow=none;html=1;rounded=0;exitX=0.5;exitY=0.5;exitDx=0;exitDy=0;exitPerimeter=0;entryX=0;entryY=0.5;entryDx=0;entryDy=0;" parent="1" source="I4vJo0qSFJRFY2jhur6u-67" target="I4vJo0qSFJRFY2jhur6u-70" edge="1">
          <mxGeometry width="50" height="50" relative="1" as="geometry">
            <mxPoint x="340" y="440" as="sourcePoint" />
            <mxPoint x="590" y="520" as="targetPoint" />
          </mxGeometry>
        </mxCell>
        <mxCell id="I4vJo0qSFJRFY2jhur6u-83" value="" style="endArrow=none;html=1;rounded=0;exitX=0.5;exitY=0.5;exitDx=0;exitDy=0;exitPerimeter=0;entryX=0;entryY=0.5;entryDx=0;entryDy=0;" parent="1" source="I4vJo0qSFJRFY2jhur6u-67" target="I4vJo0qSFJRFY2jhur6u-71" edge="1">
          <mxGeometry width="50" height="50" relative="1" as="geometry">
            <mxPoint x="370" y="677" as="sourcePoint" />
            <mxPoint x="610" y="610" as="targetPoint" />
          </mxGeometry>
        </mxCell>
        <mxCell id="I4vJo0qSFJRFY2jhur6u-84" value="Analyser le CV (AI)" style="ellipse;whiteSpace=wrap;html=1;" parent="1" vertex="1">
          <mxGeometry x="850" y="608" width="120" height="80" as="geometry" />
        </mxCell>
        <mxCell id="I4vJo0qSFJRFY2jhur6u-85" value="Calculer le score du candidat" style="ellipse;whiteSpace=wrap;html=1;" parent="1" vertex="1">
          <mxGeometry x="850" y="730" width="120" height="80" as="geometry" />
        </mxCell>
        <mxCell id="I4vJo0qSFJRFY2jhur6u-86" value="" style="endArrow=classic;dashed=1;html=1;rounded=0;exitX=1;exitY=0.5;exitDx=0;exitDy=0;entryX=0;entryY=0.5;entryDx=0;entryDy=0;endFill=1;" parent="1" source="I4vJo0qSFJRFY2jhur6u-71" target="I4vJo0qSFJRFY2jhur6u-84" edge="1">
          <mxGeometry width="50" height="50" relative="1" as="geometry">
            <mxPoint x="770" y="760" as="sourcePoint" />
            <mxPoint x="820" y="710" as="targetPoint" />
          </mxGeometry>
        </mxCell>
        <mxCell id="I4vJo0qSFJRFY2jhur6u-91" value="&amp;lt;&amp;lt;include&amp;gt;&amp;gt;" style="edgeLabel;html=1;align=center;verticalAlign=middle;resizable=0;points=[];" parent="I4vJo0qSFJRFY2jhur6u-86" vertex="1" connectable="0">
          <mxGeometry x="0.0462" y="1" relative="1" as="geometry">
            <mxPoint as="offset" />
          </mxGeometry>
        </mxCell>
        <mxCell id="I4vJo0qSFJRFY2jhur6u-87" value="" style="endArrow=classic;dashed=1;html=1;rounded=0;entryX=0.5;entryY=0;entryDx=0;entryDy=0;exitX=0.5;exitY=1;exitDx=0;exitDy=0;endFill=1;" parent="1" source="I4vJo0qSFJRFY2jhur6u-84" target="I4vJo0qSFJRFY2jhur6u-85" edge="1">
          <mxGeometry width="50" height="50" relative="1" as="geometry">
            <mxPoint x="770" y="760" as="sourcePoint" />
            <mxPoint x="820" y="710" as="targetPoint" />
          </mxGeometry>
        </mxCell>
        <mxCell id="I4vJo0qSFJRFY2jhur6u-93" value="&amp;lt;&amp;lt;include&amp;gt;&amp;gt;" style="edgeLabel;html=1;align=center;verticalAlign=middle;resizable=0;points=[];" parent="I4vJo0qSFJRFY2jhur6u-87" vertex="1" connectable="0">
          <mxGeometry x="-0.4286" relative="1" as="geometry">
            <mxPoint as="offset" />
          </mxGeometry>
        </mxCell>
        <mxCell id="I4vJo0qSFJRFY2jhur6u-94" value="LlamA" style="rounded=0;whiteSpace=wrap;html=1;" parent="1" vertex="1">
          <mxGeometry x="1250" y="613" width="80" height="70" as="geometry" />
        </mxCell>
        <mxCell id="I4vJo0qSFJRFY2jhur6u-95" value="" style="endArrow=none;html=1;rounded=0;entryX=1;entryY=0.5;entryDx=0;entryDy=0;exitX=0;exitY=0.5;exitDx=0;exitDy=0;" parent="1" source="I4vJo0qSFJRFY2jhur6u-94" target="I4vJo0qSFJRFY2jhur6u-84" edge="1">
          <mxGeometry width="50" height="50" relative="1" as="geometry">
            <mxPoint x="1280" y="670" as="sourcePoint" />
            <mxPoint x="1410" y="650" as="targetPoint" />
          </mxGeometry>
        </mxCell>
      </root>
    </mxGraphModel>
  </diagram>
</mxfile>
